PathFileType	4	(X/Y/Z)	C:\Users\Basilio\Documents\Thesis Gigler\squatting_fais\c3dfiles\039\SLS_pre_back1\markers_experimental.trc
DataRate	CameraRate	NumFrames	NumMarkers	Units	OrigDataRate	OrigDataStartFrame	OrigNumFrames
200.000000	200.000000	4	63	mm	200.000000	443	1775
Frame#	Time	FHD			LBHD			RBHD			C7			T10			CLAV			LSHO			LUUPA			LMUPA			LDUPA			LLEP			LMEP			LRAD			LUL			LRFIN			RSHO			RUPA1			RMUPA			RDUPA			RLEP			RMEP			RRAD			RUL			RUFIN			LASI			RASI			USACR			LSACR			RSACR			LTHI1			LTHI2			LTHI3			LTHI4			LLFC			LMFC			LTIB1			LTIB2			LTIB3			LTIB4			LLMAL			LMMAL			LHEE			LMT1			LMT2			LMT5			RTHI			RTHI2			RTHI3			RTHI4			RLFC			RMFC			RTIB1			RTIB2			RTIB3			RTIB4			RLMAL			RMMAL			RHEE			RMT1			RMT2			RMT5			*61			*62			
		X1	Y1	Z1	X2	Y2	Z2	X3	Y3	Z3	X4	Y4	Z4	X5	Y5	Z5	X6	Y6	Z6	X7	Y7	Z7	X8	Y8	Z8	X9	Y9	Z9	X10	Y10	Z10	X11	Y11	Z11	X12	Y12	Z12	X13	Y13	Z13	X14	Y14	Z14	X15	Y15	Z15	X16	Y16	Z16	X17	Y17	Z17	X18	Y18	Z18	X19	Y19	Z19	X20	Y20	Z20	X21	Y21	Z21	X22	Y22	Z22	X23	Y23	Z23	X24	Y24	Z24	X25	Y25	Z25	X26	Y26	Z26	X27	Y27	Z27	X28	Y28	Z28	X29	Y29	Z29	X30	Y30	Z30	X31	Y31	Z31	X32	Y32	Z32	X33	Y33	Z33	X34	Y34	Z34	X35	Y35	Z35	X36	Y36	Z36	X37	Y37	Z37	X38	Y38	Z38	X39	Y39	Z39	X40	Y40	Z40	X41	Y41	Z41	X42	Y42	Z42	X43	Y43	Z43	X44	Y44	Z44	X45	Y45	Z45	X46	Y46	Z46	X47	Y47	Z47	X48	Y48	Z48	X49	Y49	Z49	X50	Y50	Z50	X51	Y51	Z51	X52	Y52	Z52	X53	Y53	Z53	X54	Y54	Z54	X55	Y55	Z55	X56	Y56	Z56	X57	Y57	Z57	X58	Y58	Z58	X59	Y59	Z59	X60	Y60	Z60	X61	Y61	Z61	X62	Y62	Z62	X63	Y63	Z63	

444	2.215	-242.3978881835938	1769.3203125	-663.5140380859376	-403.2365722656251	1758.9443359375	-784.3970947265627	-374.8925170898438	1760.661987304688	-645.5031127929689	-456.4410095214845	1590.593017578125	-728.9038085937501	-474.7785034179689	1280.258544921875	-756.0334472656251	nan	nan	nan	-379.4209594726563	1611.732177734375	-879.559753417969	-205.5126953125001	1578.957763671875	-978.7089843750002	-185.7366790771485	1610.777587890625	-945.8249511718752	-136.6535797119141	1589.704345703125	-972.8516235351565	-70.63866424560548	1600.026733398438	-963.7092895507815	-66.85959625244142	1529.172607421875	-930.7509765625002	198.6204376220704	1636.856567382813	-850.0207519531252	203.9854888916016	1645.066162109375	-925.7524414062502	274.0428466796876	1681.629760742188	-837.0850219726565	-349.7035217285157	1597.4814453125	-574.7472534179689	-181.9748687744141	1535.98974609375	-483.4324951171876	-157.6522979736328	1571.599365234375	-511.5080871582032	-113.1859970092774	1536.4345703125	-489.5574035644532	-52.14643478393556	1552.39453125	-503.2813110351564	-46.88240051269532	1486.018432617188	-543.7431640625001	230.0209655761719	1607.94775390625	-595.4867553710939	233.4352416992188	1596.311767578125	-520.0585327148439	313.5616760253907	1650.345581054688	-589.5131225585939	-305.5668334960938	1106.298828125	-891.6170654296877	-290.6442565917969	1081.664306640625	-669.0972900390626	-482.2191772460939	1147.178466796875	-763.4954833984376	-486.0494079589845	1117.075561523438	-794.2669067382815	-480.945037841797	1112.056884765625	-734.7865600585939	-301.3382873535157	840.6195068359377	-998.7498779296877	-246.197250366211	777.828796386719	-1013.574340820313	-200.6321563720704	791.8762207031252	-1008.125854492188	-256.0398864746094	717.0614013671876	-1008.529479980469	-226.2474212646485	627.7554931640626	-1009.213806152344	-194.9479064941407	582.4857177734376	-907.7071533203127	-283.5731811523438	496.1416015625001	-998.2525024414065	-359.7190551757813	535.3060302734376	-1020.716857910156	-340.2132263183594	496.436248779297	-1014.051086425781	-400.1034545898439	449.173553466797	-970.775329589844	-582.3698120117189	414.326873779297	-976.211120605469	-552.7778320312501	394.6863403320314	-895.4512329101565	-646.7380981445314	447.4835205078126	-921.7615966796877	-541.5628662109376	239.3762512207032	-923.4351806640627	-555.2265014648439	242.4362030029297	-964.0278320312502	-610.6819458007814	267.2479553222657	-1000.83349609375	-315.0490112304688	806.0046997070315	-623.9921264648439	-268.5491333007813	758.0399169921876	-627.6593627929689	-238.1124420166016	765.2988891601564	-636.6497192382814	-287.4937133789063	675.6884765625001	-646.1483154296876	-309.2644042968751	537.0322875976564	-682.4666748046876	-279.0846557617188	540.4528808593751	-798.1772460937502	-275.3886718750001	326.9381713867188	-719.9411010742189	-363.2742309570313	264.1963195800782	-718.0467529296876	-318.6124572753907	254.0640258789063	-717.1893920898439	-302.3442993164063	208.9482879638672	-755.2039794921876	-373.8222656250001	117.7240295410157	-739.7366943359376	-343.1520690917969	139.0661010742188	-823.1416015625002	-441.6694335937501	97.42169189453128	-794.0650634765627	-217.0464782714844	53.48729705810548	-805.6607055664065	-221.0306091308594	54.71522521972658	-759.5667724609376	-275.3853759765626	35.59881973266602	-707.7851562500001	nan	nan	nan	nan	nan	nan	
445	2.22	-242.2021026611329	1769.324584960938	-663.4553833007814	-403.0664978027345	1758.901123046875	-784.4215087890627	-374.6638488769532	1760.687622070313	-645.4170532226564	-456.3626098632814	1590.656005859375	-728.7222290039064	-474.6426086425782	1280.316040039063	-755.9082641601564	nan	nan	nan	-379.3683471679688	1611.682373046875	-879.4212646484377	-205.4301147460938	1578.860961914063	-978.6548461914065	-185.6602783203125	1610.752075195313	-945.8291015625002	-136.5809326171875	1589.681396484375	-972.883728027344	-70.62911224365236	1600.038696289063	-963.7999267578127	-66.85360717773439	1529.078979492188	-930.7725830078127	198.7899017333985	1636.771240234375	-850.184753417969	204.0464935302735	1644.958374023438	-925.8923950195315	274.1573486328126	1681.61669921875	-837.2601318359377	-349.5640869140626	1597.445434570313	-574.6530151367189	-181.7697906494141	1536.06884765625	-483.3189086914064	-157.4296112060547	1571.659301757813	-511.4248046875001	-113.1248245239258	1536.073364257813	-489.6427612304689	-51.96814346313478	1552.422729492188	-503.2342224121095	-46.72035598754884	1485.534912109375	-543.7943115234376	230.199447631836	1607.855834960938	-595.4762573242189	233.6477966308594	1596.34375	-520.0667114257814	313.7711486816407	1650.298950195313	-589.6135253906251	-305.7814331054688	1106.218505859375	-891.7001953125002	-290.4946899414063	1081.604248046875	-669.1474609375001	-482.1848754882814	1147.192749023438	-763.3403320312501	-486.0957031250001	1117.120971679688	-794.0089111328127	-480.858367919922	1112.1318359375	-734.5408325195314	-301.8100585937501	840.436706542969	-998.7264404296877	-246.7861328125001	777.5843505859377	-1013.433349609375	-201.3522491455079	791.573669433594	-1008.208312988281	-256.6405029296876	716.9161376953126	-1008.382995605469	-226.7896728515626	627.5974731445314	-1009.106079101563	-195.3206787109376	582.4613037109376	-907.582702636719	-284.2869567871094	495.9251708984376	-998.0294189453127	-360.7925415039063	535.9544067382814	-1020.078247070313	-341.2098388671876	497.1854553222657	-1012.82666015625	-401.0319213867189	450.4676818847657	-970.0931396484377	-583.8327636718751	415.9590759277345	-974.9776000976565	-554.1433715820314	396.342987060547	-894.386413574219	-647.5396118164064	450.4196166992189	-920.6380615234377	-544.6296997070314	240.7937164306641	-921.9507446289065	-558.2457275390626	243.2971496582032	-962.9051513671877	-613.4942016601564	269.1125488281251	-999.3259887695315	-314.9876098632813	806.0230712890627	-623.8229980468751	-268.4682617187501	758.0864868164064	-627.4362182617189	-238.0156402587891	765.3074340820314	-636.4379882812501	-287.4066162109376	675.7281494140626	-645.9954223632814	-309.2289123535157	537.0483398437501	-682.3099975585939	-278.8634033203126	540.4301147460939	-797.9334106445315	-275.4244079589844	326.8779907226563	-719.6824951171876	-363.2244873046876	264.2991333007813	-717.9182739257814	-318.7415466308594	253.9379882812501	-717.2050170898439	-302.3157348632813	208.4617767333985	-755.2921752929689	-373.8568725585938	117.6561431884766	-739.5731811523439	-342.5323181152344	138.7410736083985	-822.800720214844	-441.8371887207032	97.43028259277347	-793.8803710937502	-216.9833221435547	53.51599121093751	-805.6063232421877	-221.0181121826172	54.72597122192384	-759.5369873046876	-275.3468017578126	35.51710891723634	-707.8026733398439	nan	nan	nan	nan	nan	nan	
446	2.225	-241.892074584961	1769.289916992188	-663.3984375000001	-402.6560974121095	1758.814819335938	-784.2810668945315	-374.4564514160157	1760.698486328125	-645.3896484375001	-456.1958312988282	1590.609497070313	-728.6477661132814	-474.6191406250001	1280.325073242188	-755.7614135742189	nan	nan	nan	-379.2541198730469	1611.69775390625	-879.2962646484377	-205.4774932861329	1578.837524414063	-978.7351074218752	-185.5748596191407	1610.715454101563	-945.8897094726565	-136.5177001953125	1589.549072265625	-972.9543457031252	-70.57830810546876	1599.951293945313	-963.8222656250002	-66.72419738769533	1528.987426757813	-930.8619384765627	198.8650360107422	1636.697143554688	-850.2958984375002	204.1477508544922	1644.9443359375	-926.0231933593752	274.2009887695313	1681.621337890625	-837.3967895507815	-349.3799438476563	1597.47900390625	-574.4733276367189	-181.6473846435547	1536.177734375	-483.2509155273439	-157.2506561279297	1571.677368164063	-511.4350585937501	-112.938591003418	1536.112060546875	-489.5797729492189	-51.78175354003908	1552.42529296875	-503.1550598144532	-46.51647186279298	1485.59619140625	-543.6440429687501	230.3289184570313	1607.815185546875	-595.4985351562501	233.8615112304688	1596.35400390625	-520.0924072265626	313.9934997558594	1650.249877929688	-589.6511230468751	-305.9799804687501	1106.21484375	-891.7498779296877	-290.3717651367188	1081.621459960938	-669.2521972656251	-482.1788635253907	1147.197875976563	-763.1820678710939	-486.117889404297	1117.150146484375	-793.8278808593752	-480.7816467285157	1112.10693359375	-734.3579101562501	-302.2659912109376	840.5494384765627	-998.6169433593752	-247.3568878173829	777.338317871094	-1013.451354980469	-201.9839630126954	791.2053833007815	-1008.227355957031	-257.2466735839844	716.6976318359376	-1008.327392578125	-227.5340118408204	627.4658813476564	-1009.065307617188	-195.7981262207032	582.4304199218751	-907.4619750976565	-285.4957885742188	496.1809082031251	-997.5002441406252	-361.6239318847657	536.4440917968751	-1019.521606445313	-342.3588256835938	497.6533813476564	-1012.363220214844	-402.6997070312501	450.7837524414064	-969.1404418945315	-585.2457885742189	417.7132263183595	-973.9423828125002	-555.4567260742189	397.7209777832032	-893.331726074219	-648.3834838867189	452.5445861816407	-919.196228027344	-547.5679321289064	242.1060943603516	-920.4044189453127	-560.6220092773439	244.9065399169922	-961.8199462890627	-616.5331420898439	271.0225524902344	-997.7473754882815	-314.9598999023438	806.097106933594	-623.6370849609376	-268.4191894531251	758.0379028320314	-627.0505371093751	-237.9738006591797	765.2964477539064	-636.2086791992189	-287.3462219238282	675.6892700195314	-645.8248291015626	-309.2098083496094	537.0380859375001	-682.0512695312501	-278.6131286621094	540.4111328125001	-797.672302246094	-275.5354919433594	326.7789916992188	-719.3659667968751	-363.3303222656251	264.3672485351563	-717.4928588867189	-318.7961120605469	254.0143737792969	-716.9576416015626	-302.3076782226563	208.4699096679688	-754.9946289062501	-373.8542785644532	117.6085662841797	-739.3711547851564	-342.9042053222657	139.1149597167969	-822.5125732421877	-441.6215820312501	97.49399566650393	-794.0256958007815	-216.9436798095704	53.63265991210939	-805.495056152344	-221.0626373291016	54.76304244995119	-759.5187988281251	-275.3444519042969	35.44417953491212	-707.8641967773439	nan	nan	nan	nan	nan	nan	
447	2.23	-241.7708892822266	1769.197265625	-663.4814453125001	-402.5620727539064	1758.780883789063	-784.3044433593752	-374.2678222656251	1760.68310546875	-645.2692871093751	-456.022430419922	1590.661010742188	-728.4724731445314	-474.6756896972657	1280.245361328125	-755.6195068359376	nan	nan	nan	-379.0955810546876	1611.72802734375	-879.1389770507815	-205.3440246582032	1578.762939453125	-978.683288574219	-185.5591888427735	1610.721313476563	-945.887878417969	-136.4165649414063	1589.51904296875	-972.9861450195315	-70.51799774169923	1599.966186523438	-963.842956542969	-66.64849090576173	1528.92626953125	-930.930603027344	199.0125885009766	1636.56494140625	-850.3591308593752	204.1815795898438	1644.896362304688	-926.1792602539065	274.2888793945313	1681.510131835938	-837.5830078125002	-349.2553710937501	1597.491455078125	-574.3244628906251	-181.5226287841797	1536.234497070313	-483.2413940429689	-156.9917449951172	1571.655883789063	-511.3349914550782	-112.7218704223633	1536.07275390625	-489.5257568359376	-51.61056137084962	1552.4052734375	-503.0774536132814	-46.29856109619141	1485.547607421875	-543.4949340820314	230.5454864501954	1607.814819335938	-595.4993286132814	234.0462188720704	1596.181396484375	-520.0415649414064	314.4435729980469	1649.953979492188	-589.8660278320314	-306.1826782226563	1106.156860351563	-891.8040161132815	-290.3585205078126	1081.601684570313	-669.2241210937501	-482.1777648925782	1147.336059570313	-762.9432983398439	-486.0932006835939	1117.10693359375	-793.6235961914065	-480.7174682617189	1112.031860351563	-734.1224365234376	-302.7601623535157	840.419128417969	-998.5173950195315	-247.8848571777344	777.0766601562502	-1013.407104492188	-202.7624206542969	791.282409667969	-1008.381958007813	-257.9681701660157	716.4933471679689	-1008.270629882813	-228.2074127197266	627.3828125000001	-1008.960754394531	-196.5346069335938	582.4556274414064	-907.415954589844	-286.4704589843751	495.7320556640626	-996.7806396484377	-362.7550964355469	537.0570068359376	-1019.029418945313	-343.4862670898438	498.1383361816407	-1012.288391113281	-403.8145751953126	451.4527587890626	-968.484069824219	-586.5684814453126	419.3218383789064	-972.8790283203127	-556.9463500976564	398.7931518554689	-892.8344726562502	-649.2610473632814	454.3473510742189	-918.0607910156252	-550.4860229492189	243.5276031494141	-919.053894042969	-563.1372070312501	247.2662506103516	-960.5505371093752	-619.3947753906251	272.8948364257813	-996.2404785156252	-314.9963073730469	806.0781250000002	-623.4320678710939	-268.4809875488282	758.1072998046876	-626.7630004882814	-237.9312591552735	765.2640380859376	-635.9633789062501	-287.3583068847657	675.6903686523439	-645.5592651367189	-309.1963806152344	537.0473022460939	-681.8566894531251	-278.4024658203126	540.3598022460939	-797.328063964844	-275.6899719238282	326.8800659179688	-719.0526123046876	-363.4209594726563	264.4563598632813	-717.1726684570314	-318.8640441894532	254.0033569335938	-716.5927124023439	-302.2937927246094	208.3755035400391	-754.6568603515626	-373.9787902832032	117.6527252197266	-739.0823364257814	-342.7880554199219	139.1397247314453	-822.1641235351565	-441.6614074707032	97.53623199462893	-793.8836669921877	-216.9980163574219	53.96680831909181	-805.480651855469	-221.0246276855469	54.78129196166994	-759.4913330078126	-275.3672485351563	35.34463119506837	-707.8934326171876	nan	nan	nan	nan	nan	nan	
